<svg width="1360" height="433" viewBox="0 0 1360 433" fill="none" xmlns="http://www.w3.org/2000/svg">
<path d="M0 531C0 531.46 0 125.649 0 125.649H8.73859V104.938H37.254V125.649H48.7521V104.478H65.3094V89.7496H93.3649V104.478H97.9641V125.649H106.703V163.39H118.201V178.118H125.1V260.964H133.378V210.796H137.518V196.529H156.375V208.495H160.974V197.909H168.793V190.545H186.27V210.336H195.008V167.072H225.823V203.893H230.883V73.1804H238.241V35.8998H253.879V73.1804H259.858V260.504H265.837V129.792H271.356V111.842H293.433V129.331H301.711V101.256L305.851 97.1136L311.14 102.407V129.331H316.889V167.993H326.547V184.102H333.906V168.913H345.864V157.867H374.379V266.947H390.477V258.203H404.734V247.156H429.111V260.964H441.069V297.784H456.246V261.424H477.863V249.458H490.281V222.303H523.855V154.185H531.674V146.821H545.932V135.315H556.51V126.57L564.329 121.967L569.388 126.57V116.905L574.907 111.382L581.806 117.365V233.349H590.544V194.227H621.819V209.876H628.718V198.83H647.115V176.738H686.209V157.407H727.602V177.198H737.721V156.947L744.62 151.884L751.058 156.947V164.771H773.595V177.658H778.194V260.044H787.853V102.176H796.591V90.6701H792.912V71.3394L801.19 65.8164L809.009 71.3394V90.6701H805.33V101.716H816.828V82.3855H842.584V101.716H849.023V108.16H845.803V275.692H851.782V210.336H889.956V197.909H906.973V209.876H911.113V215.859H908.353V301.006H917.092V209.416H953.886V198.83H971.363V209.876H985.62V115.984H991.14V98.9547H998.498V86.0675L1004.02 80.5445L1009.77 86.2977V96.1931H1018.74V115.984H1038.97V268.788H1076.23V52.0087H1082.66V45.335H1096V20.2512H1103.36V5.52305L1108.88 0L1115.55 6.67369V20.2512H1122.22V45.335H1129.58V134.394H1148.43V101.716H1153.49V80.5445H1175.57V100.796H1182.47V68.1176L1187.53 63.0548L1192.82 68.3477V99.4149H1199.95V164.311H1208.68V178.118H1235.82V131.172H1264.8V108.16H1301.13V125.649H1310.79V227.826H1317.23V98.0341H1337.92V76.8624H1360V531C1360 531 0 530.539 0 531Z" fill="url(#paint0_linear_167_4204)" fill-opacity="0.4"/>
<defs>
<linearGradient id="paint0_linear_167_4204" x1="680" y1="0" x2="680" y2="318.036" gradientUnits="userSpaceOnUse">
<stop stop-color="#BFD7FF"/>
<stop offset="1" stop-color="#C7E4FF"/>
</linearGradient>
</defs>
</svg>
